# xmcd CD Database Entry
#
# Track frame offsets:
# 182
# 4212
# 23350
# 30755
# 43130
# 61977
# 74142
# 77745
# 91152
# 97287
# 109387
# 115245
# 119062
# 128990
# 139990
# 152175
# 195250
# 225950
# 257050
# 276162
#
# Disc length: 4254 seconds
#
# Revision: 2
# Processed by: cddbd v1.4PL0 Copyright (c) Steve Scherf et al.
# Submitted via: tcd 2.0b
#
DISCID=16109c14
DTITLE=Hiroyuki Iwaki - Petrushka - Concerto For Orchestra
DYEAR=1900
DGENRE=
TTITLE0=Petrushka: Scene I
TTITLE1=Petrushka: The crowds
TTITLE2=Petrushka: The booth
TTITLE3=Petrushka: The puppets dance
TTITLE4=Petrushka: Scene 2
TTITLE5=Petrushka: Scene 3
TTITLE6=Petrushka: Entrance of the Ballerina
TTITLE7=Petrushka: Waltz
TTITLE8=Petrushka: Scene 4
TTITLE9=Petrushka: Dance of the nursemaids
TTITLE10=Petrushka: Dance of the bear
TTITLE11=Petrushka: Dance of the gipsy girls
TTITLE12=Petrushka: Dance of the coachmen
TTITLE13=Petrushka: The masqueraders
TTITLE14=Petrushka: Petruska's death
TTITLE15=Concerto for Orchestra: Introduction
TTITLE16=Concerto for Orchestra: Play of the Couples
TTITLE17=Concerto for Orchestra: Elegy
TTITLE18=Concerto for Orchestra: Intermezzo
TTITLE19=Concerto for Orchestra: Finale
EXTD=Petrushka (Igor Stravinsky]\nConcerto for Orchestra (Bela Bar
EXTD=tok]\nMelbourne Symphony Orchestra, Hiroyuki Iwaki conducting
EXTD=
EXTT0=
EXTT1=
EXTT2=
EXTT3=
EXTT4=
EXTT5=
EXTT6=
EXTT7=
EXTT8=
EXTT9=
EXTT10=
EXTT11=
EXTT12=
EXTT13=
EXTT14=
EXTT15=
EXTT16=
EXTT17=
EXTT18=
EXTT19=
PLAYORDER=
